Coordinates
version=1
nRows=7
nColumns=69
inDegrees=yes

Units are S.I. units (second, meters, Newtons, ...)
If the header above contains a line with 'inDegrees', this indicates whether rotational values are in degrees (yes) or radians (no).

endheader
time	pelvis_tilt	pelvis_list	pelvis_rotation	pelvis_tx	pelvis_ty	pelvis_tz	hip_flexion_r	hip_adduction_r	hip_rotation_r	knee_angle_r	knee_angle_r_beta	ankle_angle_r	subtalar_angle_r	mtp_angle_r	hip_flexion_l	hip_adduction_l	hip_rotation_l	knee_angle_l	knee_angle_l_beta	ankle_angle_l	subtalar_angle_l	mtp_angle_l	L5_S1_Flex_Ext	L5_S1_Lat_Bending	L5_S1_axial_rotation	L4_L5_Flex_Ext	L4_L5_Lat_Bending	L4_L5_axial_rotation	L3_L4_Flex_Ext	L3_L4_Lat_Bending	L3_L4_axial_rotation	L2_L3_Flex_Ext	L2_L3_Lat_Bending	L2_L3_axial_rotation	L1_L2_Flex_Ext	L1_L2_Lat_Bending	L1_L2_axial_rotation	L1_T12_Flex_Ext	L1_T12_Lat_Bending	L1_T12_axial_rotation	Abs_r3	Abs_r2	Abs_r1	Abs_t1	Abs_t2	neck_flexion	neck_bending	neck_rotation	sh_tx_r	sh_ty_r	sh_tz_r	sh_plane_elev_r	sh_elev_r	sh_axial_rot_r	elbow_flex_r	pro_sup_r	wrist_flex_r	wrist_dev_r	sh_tx_l	sh_ty_l	sh_tz_l	sh_plane_elev_l	sh_elev_l	sh_axial_rot_l	elbow_flex_l	pro_sup_l	wrist_flex_l	wrist_dev_l
      0.00000000	    -11.00728394	      4.38639674	   -100.57931636	      0.01414421	      0.91269043	     -1.36396711	      9.89009799	     18.94431886	      3.19116118	     31.67006648	      0.55274693	     24.96587717	    -18.62919366	      0.00000000	     55.92786430	     -9.25188063	     -0.47534988	     64.39144973	      1.12384281	      8.73388614	    -11.52161903	      0.00000000	     -0.08384481	      2.03161473	      3.63618903	     -0.15570819	      2.70204759	      3.86345085	     -0.13774863	      4.93966805	      3.86345085	     -0.09582623	      4.93966805	      3.18166540	     -0.07785829	      4.14286876	      2.95440359	     -0.04790892	      3.14697122	      2.72714177	     -0.59889507	     22.98203215	     20.22339254	      0.00000000	      0.00000000	      0.00000000	      0.00000000	      0.00000001	     -0.02685147	     -0.00002455	     -0.00518798	    -37.63017219	     27.73755268	     11.82192893	     52.55630815	     89.99559364	      0.00000000	      0.00000000	     -0.03736626	     -0.01695285	     -0.00444573	      5.59320786	      5.54419127	      2.03246164	     18.53003914	     89.99559364	      0.00000000	      0.00000000
      0.01666670	     -9.15570126	      6.18675764	   -100.12685811	      0.00658728	      0.90732996	     -1.37854909	     12.68360130	     17.29744464	      1.32258262	     34.08368513	      0.59487253	     22.28150569	    -16.31262273	      0.00000000	     54.38618786	     -7.03428074	      0.78210841	     53.08441028	      0.92649774	      7.41778706	     -8.17209471	      0.00000000	     -0.06902511	      1.73960711	      3.12150084	     -0.12818653	      2.31367746	      3.31659464	     -0.11340135	      4.22968073	      3.31659464	     -0.07888879	      4.22968073	      2.73131323	     -0.06409671	      3.54740682	      2.53621943	     -0.03944095	      2.69465142	      2.34112563	     -0.49303943	     19.67878357	     17.36085122	      0.00000000	      0.00000000	      0.00000000	      0.00000000	      0.00000001	     -0.02392123	     -0.00389855	     -0.00463120	    -32.79800524	     25.57120215	      5.90392171	     52.12307094	     89.99559364	      0.00000000	      0.00000000	     -0.03637503	     -0.01634833	     -0.00479520	     -0.21635041	      6.80910974	      0.71032015	     20.84905325	     89.99559364	      0.00000000	      0.00000000
      0.03333330	     -8.44754262	      7.60911030	    -99.55406673	     -0.00126695	      0.90451513	     -1.38906891	     15.41652776	     17.13608601	      0.33619219	     35.67804926	      0.62269943	     21.07997519	    -15.12687189	      0.00000000	     51.14343810	     -5.50490134	      2.44757490	     41.88861817	      0.73109431	      4.23408097	     -7.81434338	      0.00000000	     -0.05481042	      1.56492809	      2.83249681	     -0.10178843	      2.08135436	      3.00952787	     -0.09004804	      3.80496616	      3.00952787	     -0.06264283	      3.80496616	      2.47843471	     -0.05089696	      3.19120136	      2.30140366	     -0.03131867	      2.42407361	      2.12437261	     -0.39150535	     17.70277955	     15.75349753	      0.00000000	      0.00000000	      0.00000000	      0.00000000	      0.00000001	     -0.01797628	     -0.00725610	     -0.00447457	    -31.82291428	     24.30100849	      4.76265061	     54.77443630	     89.99559364	      0.00000000	      0.00000000	     -0.02799537	     -0.01721123	     -0.00480776	     -0.96835288	      7.95209095	      0.06294363	     22.83037311	     89.99559364	      0.00000000	      0.00000000
      0.05000000	     -7.41434621	      8.80270538	    -97.59650998	     -0.00654075	      0.90271085	     -1.39482652	     16.86380434	     16.14226872	     -1.22107098	     35.03882369	      0.61154284	     17.68456917	    -15.40028628	      0.00000000	     47.87905815	     -3.18514157	      4.94360161	     31.52925200	      0.55028926	      0.34333811	     -9.10870482	      0.00000000	     -0.04174582	      1.29129252	      2.50159759	     -0.07752617	      1.71741905	      2.65794744	     -0.06858421	      3.13964864	      2.65794744	     -0.04771130	      3.13964864	      2.18889789	     -0.03876517	      2.63320371	      2.03254804	     -0.02385356	      2.00021212	      1.87619819	     -0.29818625	     14.60735926	     13.91313531	      0.00000000	      0.00000000	      0.00000000	      0.00000000	      0.00000001	     -0.01600687	     -0.01085716	     -0.00432138	    -31.48056342	     22.62217122	      3.76255190	     56.34776019	     89.99559364	      0.00000000	      0.00000000	     -0.01465608	     -0.01744327	     -0.00466935	     -1.44330231	      9.82497019	     -0.33456182	     25.65105666	     89.99559364	      0.00000000	      0.00000000
      0.06666670	     -6.90017908	      9.63177833	    -95.71275208	     -0.00992990	      0.90341958	     -1.39355082	     18.46528088	     15.25995484	     -3.17687752	     35.98706892	      0.62809284	     15.08571470	    -16.87196948	      0.00000000	     44.75240461	     -1.39959202	      8.20266024	     23.73827393	      0.41431104	     -4.70035288	    -12.04685254	      0.00000000	     -0.02863082	      1.08648065	      2.28534746	     -0.05317030	      1.44501926	      2.42818168	     -0.04703758	      2.64166905	      2.42818168	     -0.03272217	      2.64166905	      1.99967903	     -0.02658658	      2.21555134	      1.85684481	     -0.01635965	      1.68295852	      1.71401060	     -0.20450709	     12.29048639	     12.71041699	      0.00000000	      0.00000000	      0.00000000	      0.00000000	      0.00000001	     -0.01619422	     -0.01260341	     -0.00431945	    -31.08412880	     21.41698798	      2.87822827	     57.73418878	     89.99559364	      0.00000000	      0.00000000	     -0.00093786	     -0.01770647	     -0.00444895	     -1.64197490	     11.25188904	     -0.62704290	     27.87389612	     89.99559364	      0.00000000	      0.00000000
      0.08333330	     -6.37493833	      9.79215305	    -93.55786220	     -0.01118677	      0.90570375	     -1.38315867	     18.23319680	     14.11932475	     -5.35258311	     35.97016605	      0.62779783	     13.40262349	    -17.38110712	      0.00000000	     41.65496494	      0.38100927	     11.42149113	     18.73424870	      0.32697432	     -9.27746700	    -15.24413562	      0.00000000	     -0.02026471	      0.86742713	      2.07809205	     -0.03763359	      1.15367808	      2.20797280	     -0.03329289	      2.10906231	      2.20797280	     -0.02316054	      2.10906231	      1.81833054	     -0.01881781	      1.76885740	      1.68844979	     -0.01157925	      1.34364462	      1.55856904	     -0.14474879	      9.81250914	     11.55772454	      0.00000000	      0.00000000	      0.00000000	      0.00000000	      0.00000001	     -0.01983108	     -0.01401790	     -0.00439055	    -31.31699074	     20.44585880	      2.36860001	     58.47151280	     89.99559364	      0.00000000	      0.00000000	      0.01003914	     -0.01782537	     -0.00434387	     -1.48224747	     12.65357817	     -0.71743668	     29.41540574	     89.99559364	      0.00000000	      0.00000000
      0.10000000	     -6.17723174	      9.36729757	    -91.70771885	     -0.01121519	      0.90932817	     -1.36670171	     16.83374291	     13.29673823	     -7.45169888	     35.92322574	      0.62697857	     12.47198914	    -17.56789812	      0.00000000	     39.43405298	      1.64358750	     13.72170398	     17.49151160	      0.30528447	    -11.53368997	    -17.05446298	      0.00000000	     -0.01571313	      0.69294864	      1.88839258	     -0.02918086	      0.92162169	      2.00641712	     -0.02581511	      1.68483533	      2.00641712	     -0.01795854	      1.68483533	      1.65234351	     -0.01459122	      1.41306087	      1.53431897	     -0.00897848	      1.07337745	      1.41629444	     -0.11223734	      7.83877363	     10.50267303	      0.00000000	      0.00000000	      0.00000000	      0.00000000	      0.00000001	     -0.02417160	     -0.01451072	     -0.00436760	    -32.03202413	     19.78819536	      2.12747577	     58.71383344	     89.99559364	      0.00000000	      0.00000000	      0.01596753	     -0.01792118	     -0.00406492	     -1.22558713	     13.74337884	     -0.66927601	     29.95654686	     89.99559364	      0.00000000	      0.00000000
